<?xml version="1.0" encoding="UTF-8"?>
<svg id="Layer_2" data-name="Layer 2" xmlns="http://www.w3.org/2000/svg" viewBox="0 0 203.74 203.74">
  <defs>
    <style>
      .cls-1 {
        fill: #fff;
      }
    </style>
  </defs>
  <g id="Layer_4" data-name="Layer 4">
    <polygon class="cls-1" points="52.26 114.9 86.8 114.9 79.09 148.6 44.55 148.6 52.26 114.9"/>
    <polygon class="cls-1" points="112.73 114.9 147.31 114.9 139.6 148.6 105.02 148.6 112.73 114.9"/>
    <g>
      <polygon class="cls-1" points="0 55.92 160.8 55.92 153.09 89.62 0 89.62 0 55.92"/>
      <polygon class="cls-1" points="203.74 55.92 203.74 89.62 176.53 89.62 184.24 55.92 203.74 55.92"/>
      <polygon class="cls-1" points="0 114.9 32.98 114.9 25.27 148.6 0 148.6 0 114.9"/>
      <polygon class="cls-1" points="203.74 114.9 203.74 148.6 163.04 148.6 170.75 114.9 203.74 114.9"/>
    </g>
    <polygon class="cls-1" points="113.08 0 86.8 114.9 79.09 148.6 66.47 203.74 31.9 203.74 78.51 0 113.08 0"/>
    <polygon class="cls-1" points="147.31 114.9 139.6 148.6 126.98 203.74 92.4 203.74 105.02 148.6 112.73 114.9 147.31 114.9"/>
    <polygon class="cls-1" points="173.59 0 160.8 55.92 153.09 89.62 118.51 89.62 126.22 55.92 139.01 0 173.59 0"/>
  </g>
</svg>